<mxfile host="app.diagrams.net" modified="2023-05-19T06:33:28.766Z" agent="Mozilla/5.0 (Windows NT 10.0; Win64; x64) AppleWebKit/537.36 (KHTML, like Gecko) Chrome/113.0.0.0 Safari/537.36" etag="keJvX6tgo3CaEWJd0-oR" version="21.1.1" type="device">
  <diagram name="Page-1" id="9c096ad6-e400-ecc8-3e38-643d2caac077">
    <mxGraphModel dx="3813.5" dy="2425" grid="1" gridSize="10" guides="1" tooltips="1" connect="1" arrows="1" fold="1" page="1" pageScale="1.5" pageWidth="1169" pageHeight="826" background="none" math="0" shadow="0">
      <root>
        <mxCell id="0" style=";html=1;" />
        <mxCell id="1" style=";html=1;" parent="0" />
        <mxCell id="3cfceab9cabfe5b9-22" style="edgeStyle=none;curved=1;html=1;startSize=10;endArrow=classic;endFill=1;endSize=10;strokeColor=#FF0000;strokeWidth=1;fontSize=12;" parent="1" source="30e23a8a0b95c500-1" target="3cfceab9cabfe5b9-9" edge="1">
          <mxGeometry relative="1" as="geometry" />
        </mxCell>
        <mxCell id="3cfceab9cabfe5b9-26" style="edgeStyle=none;curved=1;html=1;startSize=10;endArrow=classic;endFill=1;endSize=10;strokeColor=#FF0000;strokeWidth=1;fontSize=12;" parent="1" source="30e23a8a0b95c500-1" target="3cfceab9cabfe5b9-10" edge="1">
          <mxGeometry relative="1" as="geometry" />
        </mxCell>
        <mxCell id="3cfceab9cabfe5b9-37" style="edgeStyle=none;curved=1;html=1;startSize=10;endArrow=classic;endFill=1;endSize=10;strokeWidth=1;fontSize=12;" parent="1" source="30e23a8a0b95c500-1" target="3cfceab9cabfe5b9-11" edge="1">
          <mxGeometry relative="1" as="geometry" />
        </mxCell>
        <mxCell id="30e23a8a0b95c500-1" value="&lt;table border=&quot;1&quot; width=&quot;100%&quot; style=&quot;width: 100% ; height: 100% ; border-collapse: collapse&quot;&gt;&lt;tbody&gt;&lt;tr&gt;&lt;td colspan=&quot;2&quot; align=&quot;center&quot;&gt;&lt;font style=&quot;font-size: 12px;&quot;&gt;Title&lt;/font&gt;&lt;/td&gt;&lt;/tr&gt;&lt;tr&gt;&lt;td align=&quot;center&quot;&gt;&lt;font style=&quot;font-size: 12px;&quot;&gt;1&lt;/font&gt;&lt;/td&gt;&lt;td align=&quot;center&quot;&gt;&lt;font style=&quot;font-size: 12px;&quot;&gt;1 day&lt;/font&gt;&lt;/td&gt;&lt;/tr&gt;&lt;tr&gt;&lt;td align=&quot;center&quot;&gt;&lt;font style=&quot;font-size: 12px;&quot;&gt;Mon 1/2&lt;/font&gt;&lt;/td&gt;&lt;td align=&quot;center&quot;&gt;&lt;font style=&quot;font-size: 12px;&quot;&gt;Mon 2/2&lt;/font&gt;&lt;/td&gt;&lt;/tr&gt;&lt;/tbody&gt;&lt;/table&gt;" style="text;html=1;strokeColor=#FF0000;fillColor=#f5f5f5;overflow=fill;rounded=0;shadow=1;fontSize=12;align=center;" parent="1" vertex="1">
          <mxGeometry x="167" y="432" width="150" height="60" as="geometry" />
        </mxCell>
        <mxCell id="3cfceab9cabfe5b9-36" style="edgeStyle=none;curved=1;html=1;startSize=10;endArrow=classic;endFill=1;endSize=10;strokeColor=#FF0000;strokeWidth=1;fontSize=12;" parent="1" source="3cfceab9cabfe5b9-2" target="3cfceab9cabfe5b9-16" edge="1">
          <mxGeometry relative="1" as="geometry" />
        </mxCell>
        <mxCell id="3cfceab9cabfe5b9-2" value="&lt;table border=&quot;1&quot; width=&quot;100%&quot; style=&quot;width: 100% ; height: 100% ; border-collapse: collapse&quot;&gt;&lt;tbody&gt;&lt;tr&gt;&lt;td colspan=&quot;2&quot; align=&quot;center&quot;&gt;&lt;font style=&quot;font-size: 12px&quot;&gt;Title&lt;/font&gt;&lt;/td&gt;&lt;/tr&gt;&lt;tr&gt;&lt;td align=&quot;center&quot;&gt;19&lt;/td&gt;&lt;td align=&quot;center&quot;&gt;&lt;font style=&quot;font-size: 12px&quot;&gt;1 day&lt;/font&gt;&lt;/td&gt;&lt;/tr&gt;&lt;tr&gt;&lt;td align=&quot;center&quot;&gt;&lt;font style=&quot;font-size: 12px&quot;&gt;Mon 1/2&lt;/font&gt;&lt;/td&gt;&lt;td align=&quot;center&quot;&gt;&lt;font style=&quot;font-size: 12px&quot;&gt;Mon 2/2&lt;/font&gt;&lt;/td&gt;&lt;/tr&gt;&lt;/tbody&gt;&lt;/table&gt;" style="text;html=1;strokeColor=#FF0000;fillColor=#f5f5f5;overflow=fill;rounded=0;shadow=1;fontSize=12;align=center;" parent="1" vertex="1">
          <mxGeometry x="1437" y="858" width="150" height="60" as="geometry" />
        </mxCell>
        <mxCell id="3cfceab9cabfe5b9-35" style="edgeStyle=none;curved=1;html=1;startSize=10;endArrow=classic;endFill=1;endSize=10;strokeColor=#FF0000;strokeWidth=1;fontSize=12;" parent="1" source="3cfceab9cabfe5b9-3" target="3cfceab9cabfe5b9-2" edge="1">
          <mxGeometry relative="1" as="geometry" />
        </mxCell>
        <mxCell id="3cfceab9cabfe5b9-51" style="edgeStyle=none;curved=1;html=1;startSize=10;endArrow=classic;endFill=1;endSize=10;strokeWidth=1;fontSize=12;" parent="1" source="3cfceab9cabfe5b9-3" target="3cfceab9cabfe5b9-52" edge="1">
          <mxGeometry relative="1" as="geometry">
            <mxPoint x="1397" y="700" as="targetPoint" />
          </mxGeometry>
        </mxCell>
        <mxCell id="3cfceab9cabfe5b9-3" value="&lt;table border=&quot;1&quot; width=&quot;100%&quot; style=&quot;width: 100% ; height: 100% ; border-collapse: collapse&quot;&gt;&lt;tbody&gt;&lt;tr&gt;&lt;td colspan=&quot;2&quot; align=&quot;center&quot;&gt;&lt;font style=&quot;font-size: 12px&quot;&gt;Title&lt;/font&gt;&lt;/td&gt;&lt;/tr&gt;&lt;tr&gt;&lt;td align=&quot;center&quot;&gt;15&lt;/td&gt;&lt;td align=&quot;center&quot;&gt;&lt;font style=&quot;font-size: 12px&quot;&gt;1 day&lt;/font&gt;&lt;/td&gt;&lt;/tr&gt;&lt;tr&gt;&lt;td align=&quot;center&quot;&gt;&lt;font style=&quot;font-size: 12px&quot;&gt;Mon 1/2&lt;/font&gt;&lt;/td&gt;&lt;td align=&quot;center&quot;&gt;&lt;font style=&quot;font-size: 12px&quot;&gt;Mon 2/2&lt;/font&gt;&lt;/td&gt;&lt;/tr&gt;&lt;/tbody&gt;&lt;/table&gt;" style="text;html=1;strokeColor=#FF0000;fillColor=#f5f5f5;overflow=fill;rounded=0;shadow=1;fontSize=12;align=center;" parent="1" vertex="1">
          <mxGeometry x="1437" y="686" width="150" height="60" as="geometry" />
        </mxCell>
        <mxCell id="3cfceab9cabfe5b9-34" style="edgeStyle=none;curved=1;html=1;startSize=10;endArrow=classic;endFill=1;endSize=10;strokeColor=#FF0000;strokeWidth=1;fontSize=12;" parent="1" source="3cfceab9cabfe5b9-4" target="3cfceab9cabfe5b9-3" edge="1">
          <mxGeometry relative="1" as="geometry" />
        </mxCell>
        <mxCell id="3cfceab9cabfe5b9-4" value="&lt;table border=&quot;1&quot; width=&quot;100%&quot; style=&quot;width: 100% ; height: 100% ; border-collapse: collapse&quot;&gt;&lt;tbody&gt;&lt;tr&gt;&lt;td colspan=&quot;2&quot; align=&quot;center&quot;&gt;&lt;font style=&quot;font-size: 12px&quot;&gt;Title&lt;/font&gt;&lt;/td&gt;&lt;/tr&gt;&lt;tr&gt;&lt;td align=&quot;center&quot;&gt;&lt;font style=&quot;font-size: 12px&quot;&gt;11&lt;/font&gt;&lt;/td&gt;&lt;td align=&quot;center&quot;&gt;&lt;font style=&quot;font-size: 12px&quot;&gt;1 day&lt;/font&gt;&lt;/td&gt;&lt;/tr&gt;&lt;tr&gt;&lt;td align=&quot;center&quot;&gt;&lt;font style=&quot;font-size: 12px&quot;&gt;Mon 1/2&lt;/font&gt;&lt;/td&gt;&lt;td align=&quot;center&quot;&gt;&lt;font style=&quot;font-size: 12px&quot;&gt;Mon 2/2&lt;/font&gt;&lt;/td&gt;&lt;/tr&gt;&lt;/tbody&gt;&lt;/table&gt;" style="text;html=1;strokeColor=#FF0000;fillColor=#f5f5f5;overflow=fill;rounded=0;shadow=1;fontSize=12;align=center;" parent="1" vertex="1">
          <mxGeometry x="1437" y="574" width="150" height="60" as="geometry" />
        </mxCell>
        <mxCell id="3cfceab9cabfe5b9-33" style="edgeStyle=none;curved=1;html=1;startSize=10;endArrow=classic;endFill=1;endSize=10;strokeColor=#FF0000;strokeWidth=1;fontSize=12;" parent="1" source="3cfceab9cabfe5b9-5" target="3cfceab9cabfe5b9-4" edge="1">
          <mxGeometry relative="1" as="geometry" />
        </mxCell>
        <mxCell id="3cfceab9cabfe5b9-5" value="&lt;table border=&quot;1&quot; width=&quot;100%&quot; style=&quot;width: 100% ; height: 100% ; border-collapse: collapse&quot;&gt;&lt;tbody&gt;&lt;tr&gt;&lt;td colspan=&quot;2&quot; align=&quot;center&quot;&gt;&lt;font style=&quot;font-size: 12px&quot;&gt;Title&lt;/font&gt;&lt;/td&gt;&lt;/tr&gt;&lt;tr&gt;&lt;td align=&quot;center&quot;&gt;9&lt;/td&gt;&lt;td align=&quot;center&quot;&gt;&lt;font style=&quot;font-size: 12px&quot;&gt;1 day&lt;/font&gt;&lt;/td&gt;&lt;/tr&gt;&lt;tr&gt;&lt;td align=&quot;center&quot;&gt;&lt;font style=&quot;font-size: 12px&quot;&gt;Mon 1/2&lt;/font&gt;&lt;/td&gt;&lt;td align=&quot;center&quot;&gt;&lt;font style=&quot;font-size: 12px&quot;&gt;Mon 2/2&lt;/font&gt;&lt;/td&gt;&lt;/tr&gt;&lt;/tbody&gt;&lt;/table&gt;" style="text;html=1;strokeColor=#FF0000;fillColor=#f5f5f5;overflow=fill;rounded=0;shadow=1;fontSize=12;align=center;" parent="1" vertex="1">
          <mxGeometry x="1437" y="432" width="150" height="60" as="geometry" />
        </mxCell>
        <mxCell id="3cfceab9cabfe5b9-24" style="edgeStyle=none;curved=1;html=1;startSize=10;endArrow=classic;endFill=1;endSize=10;strokeColor=#FF0000;strokeWidth=1;fontSize=12;" parent="1" source="3cfceab9cabfe5b9-6" target="3cfceab9cabfe5b9-14" edge="1">
          <mxGeometry relative="1" as="geometry" />
        </mxCell>
        <mxCell id="3cfceab9cabfe5b9-6" value="&lt;table border=&quot;1&quot; width=&quot;100%&quot; style=&quot;width: 100% ; height: 100% ; border-collapse: collapse&quot;&gt;&lt;tbody&gt;&lt;tr&gt;&lt;td colspan=&quot;2&quot; align=&quot;center&quot;&gt;&lt;font style=&quot;font-size: 12px&quot;&gt;Title&lt;/font&gt;&lt;/td&gt;&lt;/tr&gt;&lt;tr&gt;&lt;td align=&quot;center&quot;&gt;4&lt;/td&gt;&lt;td align=&quot;center&quot;&gt;&lt;font style=&quot;font-size: 12px&quot;&gt;1 day&lt;/font&gt;&lt;/td&gt;&lt;/tr&gt;&lt;tr&gt;&lt;td align=&quot;center&quot;&gt;&lt;font style=&quot;font-size: 12px&quot;&gt;Mon 1/2&lt;/font&gt;&lt;/td&gt;&lt;td align=&quot;center&quot;&gt;&lt;font style=&quot;font-size: 12px&quot;&gt;Mon 2/2&lt;/font&gt;&lt;/td&gt;&lt;/tr&gt;&lt;/tbody&gt;&lt;/table&gt;" style="text;html=1;strokeColor=#FF0000;fillColor=#f5f5f5;overflow=fill;rounded=0;shadow=1;fontSize=12;align=center;" parent="1" vertex="1">
          <mxGeometry x="1122" y="180" width="150" height="60" as="geometry" />
        </mxCell>
        <mxCell id="3cfceab9cabfe5b9-48" style="edgeStyle=none;curved=1;html=1;startSize=10;endArrow=classic;endFill=1;endSize=10;strokeWidth=1;fontSize=12;" parent="1" source="3cfceab9cabfe5b9-7" target="3cfceab9cabfe5b9-46" edge="1">
          <mxGeometry relative="1" as="geometry" />
        </mxCell>
        <mxCell id="3cfceab9cabfe5b9-7" value="&lt;table border=&quot;1&quot; width=&quot;100%&quot; style=&quot;width: 100% ; height: 100% ; border-collapse: collapse&quot;&gt;&lt;tbody&gt;&lt;tr&gt;&lt;td colspan=&quot;2&quot; align=&quot;center&quot;&gt;&lt;font style=&quot;font-size: 12px&quot;&gt;Title&lt;/font&gt;&lt;/td&gt;&lt;/tr&gt;&lt;tr&gt;&lt;td align=&quot;center&quot;&gt;&lt;font style=&quot;font-size: 12px&quot;&gt;12&lt;/font&gt;&lt;/td&gt;&lt;td align=&quot;center&quot;&gt;&lt;font style=&quot;font-size: 12px&quot;&gt;1 day&lt;/font&gt;&lt;/td&gt;&lt;/tr&gt;&lt;tr&gt;&lt;td align=&quot;center&quot;&gt;&lt;font style=&quot;font-size: 12px&quot;&gt;Mon 1/2&lt;/font&gt;&lt;/td&gt;&lt;td align=&quot;center&quot;&gt;&lt;font style=&quot;font-size: 12px&quot;&gt;Mon 2/2&lt;/font&gt;&lt;/td&gt;&lt;/tr&gt;&lt;/tbody&gt;&lt;/table&gt;" style="text;html=1;strokeColor=#666666;fillColor=#f5f5f5;overflow=fill;rounded=0;shadow=1;fontSize=12;align=center;" parent="1" vertex="1">
          <mxGeometry x="767" y="686" width="150" height="60" as="geometry" />
        </mxCell>
        <mxCell id="3cfceab9cabfe5b9-30" style="edgeStyle=none;curved=1;html=1;startSize=10;endArrow=classic;endFill=1;endSize=10;strokeColor=#FF0000;strokeWidth=1;fontSize=12;" parent="1" source="3cfceab9cabfe5b9-8" target="3cfceab9cabfe5b9-18" edge="1">
          <mxGeometry relative="1" as="geometry" />
        </mxCell>
        <mxCell id="3cfceab9cabfe5b9-8" value="&lt;table border=&quot;1&quot; width=&quot;100%&quot; style=&quot;width: 100% ; height: 100% ; border-collapse: collapse&quot;&gt;&lt;tbody&gt;&lt;tr&gt;&lt;td colspan=&quot;2&quot; align=&quot;center&quot;&gt;&lt;font style=&quot;font-size: 12px&quot;&gt;Title&lt;/font&gt;&lt;/td&gt;&lt;/tr&gt;&lt;tr&gt;&lt;td align=&quot;center&quot;&gt;7&lt;/td&gt;&lt;td align=&quot;center&quot;&gt;&lt;font style=&quot;font-size: 12px&quot;&gt;1 day&lt;/font&gt;&lt;/td&gt;&lt;/tr&gt;&lt;tr&gt;&lt;td align=&quot;center&quot;&gt;&lt;font style=&quot;font-size: 12px&quot;&gt;Mon 1/2&lt;/font&gt;&lt;/td&gt;&lt;td align=&quot;center&quot;&gt;&lt;font style=&quot;font-size: 12px&quot;&gt;Mon 2/2&lt;/font&gt;&lt;/td&gt;&lt;/tr&gt;&lt;/tbody&gt;&lt;/table&gt;" style="text;html=1;strokeColor=#FF0000;fillColor=#f5f5f5;overflow=fill;rounded=0;shadow=1;fontSize=12;align=center;" parent="1" vertex="1">
          <mxGeometry x="837" y="432" width="150" height="60" as="geometry" />
        </mxCell>
        <mxCell id="3cfceab9cabfe5b9-23" style="edgeStyle=none;curved=1;html=1;startSize=10;endArrow=classic;endFill=1;endSize=10;strokeColor=#FF0000;strokeWidth=1;fontSize=12;" parent="1" source="3cfceab9cabfe5b9-9" target="3cfceab9cabfe5b9-6" edge="1">
          <mxGeometry relative="1" as="geometry" />
        </mxCell>
        <mxCell id="3cfceab9cabfe5b9-9" value="&lt;table border=&quot;1&quot; width=&quot;100%&quot; style=&quot;width: 100% ; height: 100% ; border-collapse: collapse&quot;&gt;&lt;tbody&gt;&lt;tr&gt;&lt;td colspan=&quot;2&quot; align=&quot;center&quot;&gt;&lt;font style=&quot;font-size: 12px&quot;&gt;Title&lt;/font&gt;&lt;/td&gt;&lt;/tr&gt;&lt;tr&gt;&lt;td align=&quot;center&quot;&gt;3&lt;/td&gt;&lt;td align=&quot;center&quot;&gt;&lt;font style=&quot;font-size: 12px&quot;&gt;1 day&lt;/font&gt;&lt;/td&gt;&lt;/tr&gt;&lt;tr&gt;&lt;td align=&quot;center&quot;&gt;&lt;font style=&quot;font-size: 12px&quot;&gt;Mon 1/2&lt;/font&gt;&lt;/td&gt;&lt;td align=&quot;center&quot;&gt;&lt;font style=&quot;font-size: 12px&quot;&gt;Mon 2/2&lt;/font&gt;&lt;/td&gt;&lt;/tr&gt;&lt;/tbody&gt;&lt;/table&gt;" style="text;html=1;strokeColor=#FF0000;fillColor=#f5f5f5;overflow=fill;rounded=0;shadow=1;fontSize=12;align=center;" parent="1" vertex="1">
          <mxGeometry x="647" y="180" width="150" height="60" as="geometry" />
        </mxCell>
        <mxCell id="3cfceab9cabfe5b9-27" style="edgeStyle=none;curved=1;html=1;startSize=10;endArrow=classic;endFill=1;endSize=10;strokeColor=#FF0000;strokeWidth=1;fontSize=12;" parent="1" source="3cfceab9cabfe5b9-10" target="3cfceab9cabfe5b9-12" edge="1">
          <mxGeometry relative="1" as="geometry" />
        </mxCell>
        <mxCell id="3cfceab9cabfe5b9-29" style="edgeStyle=none;curved=1;html=1;startSize=10;endArrow=classic;endFill=1;endSize=10;strokeColor=#FF0000;strokeWidth=1;fontSize=12;" parent="1" source="3cfceab9cabfe5b9-10" target="3cfceab9cabfe5b9-8" edge="1">
          <mxGeometry relative="1" as="geometry" />
        </mxCell>
        <mxCell id="3cfceab9cabfe5b9-43" style="edgeStyle=none;curved=1;html=1;startSize=10;endArrow=classic;endFill=1;endSize=10;strokeColor=#FF0000;strokeWidth=1;fontSize=12;" parent="1" source="3cfceab9cabfe5b9-10" target="3cfceab9cabfe5b9-13" edge="1">
          <mxGeometry relative="1" as="geometry" />
        </mxCell>
        <mxCell id="3cfceab9cabfe5b9-45" style="edgeStyle=none;curved=1;html=1;startSize=10;endArrow=classic;endFill=1;endSize=10;strokeWidth=1;fontSize=12;" parent="1" source="3cfceab9cabfe5b9-10" target="3cfceab9cabfe5b9-7" edge="1">
          <mxGeometry relative="1" as="geometry" />
        </mxCell>
        <mxCell id="3cfceab9cabfe5b9-10" value="&lt;table border=&quot;1&quot; width=&quot;100%&quot; style=&quot;width: 100% ; height: 100% ; border-collapse: collapse&quot;&gt;&lt;tbody&gt;&lt;tr&gt;&lt;td colspan=&quot;2&quot; align=&quot;center&quot;&gt;&lt;font style=&quot;font-size: 12px&quot;&gt;Title&lt;/font&gt;&lt;/td&gt;&lt;/tr&gt;&lt;tr&gt;&lt;td align=&quot;center&quot;&gt;2&lt;/td&gt;&lt;td align=&quot;center&quot;&gt;&lt;font style=&quot;font-size: 12px&quot;&gt;1 day&lt;/font&gt;&lt;/td&gt;&lt;/tr&gt;&lt;tr&gt;&lt;td align=&quot;center&quot;&gt;&lt;font style=&quot;font-size: 12px&quot;&gt;Mon 1/2&lt;/font&gt;&lt;/td&gt;&lt;td align=&quot;center&quot;&gt;&lt;font style=&quot;font-size: 12px&quot;&gt;Mon 2/2&lt;/font&gt;&lt;/td&gt;&lt;/tr&gt;&lt;/tbody&gt;&lt;/table&gt;" style="text;html=1;strokeColor=#FF0000;fillColor=#f5f5f5;overflow=fill;rounded=0;shadow=1;fontSize=12;align=center;" parent="1" vertex="1">
          <mxGeometry x="527" y="432.0000000000001" width="150" height="60" as="geometry" />
        </mxCell>
        <mxCell id="3cfceab9cabfe5b9-38" style="edgeStyle=none;curved=1;html=1;startSize=10;endArrow=classic;endFill=1;endSize=10;strokeWidth=1;fontSize=12;" parent="1" source="3cfceab9cabfe5b9-11" target="3cfceab9cabfe5b9-15" edge="1">
          <mxGeometry relative="1" as="geometry" />
        </mxCell>
        <mxCell id="3cfceab9cabfe5b9-58" style="edgeStyle=none;curved=1;html=1;startSize=10;endArrow=classic;endFill=1;endSize=10;strokeWidth=1;fontSize=12;" parent="1" source="3cfceab9cabfe5b9-11" target="3cfceab9cabfe5b9-7" edge="1">
          <mxGeometry relative="1" as="geometry" />
        </mxCell>
        <mxCell id="3cfceab9cabfe5b9-11" value="&lt;table border=&quot;1&quot; width=&quot;100%&quot; style=&quot;width: 100% ; height: 100% ; border-collapse: collapse&quot;&gt;&lt;tbody&gt;&lt;tr&gt;&lt;td colspan=&quot;2&quot; align=&quot;center&quot;&gt;&lt;font style=&quot;font-size: 12px&quot;&gt;Title&lt;/font&gt;&lt;/td&gt;&lt;/tr&gt;&lt;tr&gt;&lt;td align=&quot;center&quot;&gt;16&lt;/td&gt;&lt;td align=&quot;center&quot;&gt;&lt;font style=&quot;font-size: 12px&quot;&gt;1 day&lt;/font&gt;&lt;/td&gt;&lt;/tr&gt;&lt;tr&gt;&lt;td align=&quot;center&quot;&gt;&lt;font style=&quot;font-size: 12px&quot;&gt;Mon 1/2&lt;/font&gt;&lt;/td&gt;&lt;td align=&quot;center&quot;&gt;&lt;font style=&quot;font-size: 12px&quot;&gt;Mon 2/2&lt;/font&gt;&lt;/td&gt;&lt;/tr&gt;&lt;/tbody&gt;&lt;/table&gt;" style="text;html=1;strokeColor=#666666;fillColor=#f5f5f5;overflow=fill;rounded=0;shadow=1;fontSize=12;align=center;" parent="1" vertex="1">
          <mxGeometry x="367" y="810" width="150" height="60" as="geometry" />
        </mxCell>
        <mxCell id="3cfceab9cabfe5b9-28" style="edgeStyle=none;curved=1;html=1;startSize=10;endArrow=classic;endFill=1;endSize=10;strokeColor=#FF0000;strokeWidth=1;fontSize=12;" parent="1" source="3cfceab9cabfe5b9-12" target="3cfceab9cabfe5b9-17" edge="1">
          <mxGeometry relative="1" as="geometry" />
        </mxCell>
        <mxCell id="3cfceab9cabfe5b9-12" value="&lt;table border=&quot;1&quot; width=&quot;100%&quot; style=&quot;width: 100% ; height: 100% ; border-collapse: collapse&quot;&gt;&lt;tbody&gt;&lt;tr&gt;&lt;td colspan=&quot;2&quot; align=&quot;center&quot;&gt;&lt;font style=&quot;font-size: 12px;&quot;&gt;Title&lt;/font&gt;&lt;/td&gt;&lt;/tr&gt;&lt;tr&gt;&lt;td align=&quot;center&quot;&gt;&lt;font style=&quot;font-size: 12px;&quot;&gt;1&lt;/font&gt;&lt;/td&gt;&lt;td align=&quot;center&quot;&gt;&lt;font style=&quot;font-size: 12px;&quot;&gt;1 day&lt;/font&gt;&lt;/td&gt;&lt;/tr&gt;&lt;tr&gt;&lt;td align=&quot;center&quot;&gt;&lt;font style=&quot;font-size: 12px;&quot;&gt;Mon 1/2&lt;/font&gt;&lt;/td&gt;&lt;td align=&quot;center&quot;&gt;&lt;font style=&quot;font-size: 12px;&quot;&gt;Mon 2/2&lt;/font&gt;&lt;/td&gt;&lt;/tr&gt;&lt;/tbody&gt;&lt;/table&gt;" style="text;html=1;strokeColor=#FF0000;fillColor=#f5f5f5;overflow=fill;rounded=0;shadow=1;fontSize=12;align=center;" parent="1" vertex="1">
          <mxGeometry x="837" y="290" width="150" height="60" as="geometry" />
        </mxCell>
        <mxCell id="3cfceab9cabfe5b9-44" style="edgeStyle=none;curved=1;html=1;startSize=10;endArrow=classic;endFill=1;endSize=10;strokeColor=#FF0000;strokeWidth=1;fontSize=12;" parent="1" source="3cfceab9cabfe5b9-13" target="3cfceab9cabfe5b9-5" edge="1">
          <mxGeometry relative="1" as="geometry" />
        </mxCell>
        <mxCell id="3cfceab9cabfe5b9-13" value="&lt;table border=&quot;1&quot; width=&quot;100%&quot; style=&quot;width: 100% ; height: 100% ; border-collapse: collapse&quot;&gt;&lt;tbody&gt;&lt;tr&gt;&lt;td colspan=&quot;2&quot; align=&quot;center&quot;&gt;&lt;font style=&quot;font-size: 12px&quot;&gt;Title&lt;/font&gt;&lt;/td&gt;&lt;/tr&gt;&lt;tr&gt;&lt;td align=&quot;center&quot;&gt;10&lt;/td&gt;&lt;td align=&quot;center&quot;&gt;&lt;font style=&quot;font-size: 12px&quot;&gt;1 day&lt;/font&gt;&lt;/td&gt;&lt;/tr&gt;&lt;tr&gt;&lt;td align=&quot;center&quot;&gt;&lt;font style=&quot;font-size: 12px&quot;&gt;Mon 1/2&lt;/font&gt;&lt;/td&gt;&lt;td align=&quot;center&quot;&gt;&lt;font style=&quot;font-size: 12px&quot;&gt;Mon 2/2&lt;/font&gt;&lt;/td&gt;&lt;/tr&gt;&lt;/tbody&gt;&lt;/table&gt;" style="text;html=1;strokeColor=#FF0000;fillColor=#f5f5f5;overflow=fill;rounded=0;shadow=1;fontSize=12;align=center;" parent="1" vertex="1">
          <mxGeometry x="1037" y="590" width="150" height="60" as="geometry" />
        </mxCell>
        <mxCell id="3cfceab9cabfe5b9-32" style="edgeStyle=none;curved=1;html=1;startSize=10;endArrow=classic;endFill=1;endSize=10;strokeColor=#FF0000;strokeWidth=1;fontSize=12;" parent="1" source="3cfceab9cabfe5b9-14" target="3cfceab9cabfe5b9-5" edge="1">
          <mxGeometry relative="1" as="geometry" />
        </mxCell>
        <mxCell id="3cfceab9cabfe5b9-14" value="&lt;table border=&quot;1&quot; width=&quot;100%&quot; style=&quot;width: 100% ; height: 100% ; border-collapse: collapse&quot;&gt;&lt;tbody&gt;&lt;tr&gt;&lt;td colspan=&quot;2&quot; align=&quot;center&quot;&gt;&lt;font style=&quot;font-size: 12px&quot;&gt;Title&lt;/font&gt;&lt;/td&gt;&lt;/tr&gt;&lt;tr&gt;&lt;td align=&quot;center&quot;&gt;6&lt;/td&gt;&lt;td align=&quot;center&quot;&gt;&lt;font style=&quot;font-size: 12px&quot;&gt;1 day&lt;/font&gt;&lt;/td&gt;&lt;/tr&gt;&lt;tr&gt;&lt;td align=&quot;center&quot;&gt;&lt;font style=&quot;font-size: 12px&quot;&gt;Mon 1/2&lt;/font&gt;&lt;/td&gt;&lt;td align=&quot;center&quot;&gt;&lt;font style=&quot;font-size: 12px&quot;&gt;Mon 2/2&lt;/font&gt;&lt;/td&gt;&lt;/tr&gt;&lt;/tbody&gt;&lt;/table&gt;" style="text;html=1;strokeColor=#FF0000;fillColor=#f5f5f5;overflow=fill;rounded=0;shadow=1;fontSize=12;align=center;" parent="1" vertex="1">
          <mxGeometry x="1437" y="290" width="150" height="60" as="geometry" />
        </mxCell>
        <mxCell id="3cfceab9cabfe5b9-39" style="edgeStyle=none;curved=1;html=1;startSize=10;endArrow=classic;endFill=1;endSize=10;strokeWidth=1;fontSize=12;" parent="1" source="3cfceab9cabfe5b9-15" target="3cfceab9cabfe5b9-20" edge="1">
          <mxGeometry relative="1" as="geometry" />
        </mxCell>
        <mxCell id="3cfceab9cabfe5b9-56" style="edgeStyle=none;curved=1;html=1;startSize=10;endArrow=classic;endFill=1;endSize=10;strokeWidth=1;fontSize=12;" parent="1" source="3cfceab9cabfe5b9-15" target="3cfceab9cabfe5b9-19" edge="1">
          <mxGeometry relative="1" as="geometry" />
        </mxCell>
        <mxCell id="3cfceab9cabfe5b9-15" value="&lt;table border=&quot;1&quot; width=&quot;100%&quot; style=&quot;width: 100% ; height: 100% ; border-collapse: collapse&quot;&gt;&lt;tbody&gt;&lt;tr&gt;&lt;td colspan=&quot;2&quot; align=&quot;center&quot;&gt;&lt;font style=&quot;font-size: 12px&quot;&gt;Title&lt;/font&gt;&lt;/td&gt;&lt;/tr&gt;&lt;tr&gt;&lt;td align=&quot;center&quot;&gt;20&lt;/td&gt;&lt;td align=&quot;center&quot;&gt;&lt;font style=&quot;font-size: 12px&quot;&gt;1 day&lt;/font&gt;&lt;/td&gt;&lt;/tr&gt;&lt;tr&gt;&lt;td align=&quot;center&quot;&gt;&lt;font style=&quot;font-size: 12px&quot;&gt;Mon 1/2&lt;/font&gt;&lt;/td&gt;&lt;td align=&quot;center&quot;&gt;&lt;font style=&quot;font-size: 12px&quot;&gt;Mon 2/2&lt;/font&gt;&lt;/td&gt;&lt;/tr&gt;&lt;/tbody&gt;&lt;/table&gt;" style="text;html=1;strokeColor=#666666;fillColor=#f5f5f5;overflow=fill;rounded=0;shadow=1;fontSize=12;align=center;" parent="1" vertex="1">
          <mxGeometry x="527" y="1000" width="150" height="60" as="geometry" />
        </mxCell>
        <mxCell id="3cfceab9cabfe5b9-16" value="&lt;table border=&quot;1&quot; width=&quot;100%&quot; style=&quot;width: 100% ; height: 100% ; border-collapse: collapse&quot;&gt;&lt;tbody&gt;&lt;tr&gt;&lt;td colspan=&quot;2&quot; align=&quot;center&quot;&gt;&lt;font style=&quot;font-size: 12px&quot;&gt;Title&lt;/font&gt;&lt;/td&gt;&lt;/tr&gt;&lt;tr&gt;&lt;td align=&quot;center&quot;&gt;23&lt;/td&gt;&lt;td align=&quot;center&quot;&gt;&lt;font style=&quot;font-size: 12px&quot;&gt;1 day&lt;/font&gt;&lt;/td&gt;&lt;/tr&gt;&lt;tr&gt;&lt;td align=&quot;center&quot;&gt;&lt;font style=&quot;font-size: 12px&quot;&gt;Mon 1/2&lt;/font&gt;&lt;/td&gt;&lt;td align=&quot;center&quot;&gt;&lt;font style=&quot;font-size: 12px&quot;&gt;Mon 2/2&lt;/font&gt;&lt;/td&gt;&lt;/tr&gt;&lt;/tbody&gt;&lt;/table&gt;" style="text;html=1;strokeColor=#FF0000;fillColor=#f5f5f5;overflow=fill;rounded=0;shadow=1;fontSize=12;align=center;" parent="1" vertex="1">
          <mxGeometry x="1437" y="1000" width="150" height="60" as="geometry" />
        </mxCell>
        <mxCell id="3cfceab9cabfe5b9-25" style="edgeStyle=none;curved=1;html=1;startSize=10;endArrow=classic;endFill=1;endSize=10;strokeColor=#FF0000;strokeWidth=1;fontSize=12;" parent="1" source="3cfceab9cabfe5b9-17" target="3cfceab9cabfe5b9-14" edge="1">
          <mxGeometry relative="1" as="geometry" />
        </mxCell>
        <mxCell id="3cfceab9cabfe5b9-17" value="&lt;table border=&quot;1&quot; width=&quot;100%&quot; style=&quot;width: 100% ; height: 100% ; border-collapse: collapse&quot;&gt;&lt;tbody&gt;&lt;tr&gt;&lt;td colspan=&quot;2&quot; align=&quot;center&quot;&gt;&lt;font style=&quot;font-size: 12px&quot;&gt;Title&lt;/font&gt;&lt;/td&gt;&lt;/tr&gt;&lt;tr&gt;&lt;td align=&quot;center&quot;&gt;5&lt;/td&gt;&lt;td align=&quot;center&quot;&gt;&lt;font style=&quot;font-size: 12px&quot;&gt;1 day&lt;/font&gt;&lt;/td&gt;&lt;/tr&gt;&lt;tr&gt;&lt;td align=&quot;center&quot;&gt;&lt;font style=&quot;font-size: 12px&quot;&gt;Mon 1/2&lt;/font&gt;&lt;/td&gt;&lt;td align=&quot;center&quot;&gt;&lt;font style=&quot;font-size: 12px&quot;&gt;Mon 2/2&lt;/font&gt;&lt;/td&gt;&lt;/tr&gt;&lt;/tbody&gt;&lt;/table&gt;" style="text;html=1;strokeColor=#FF0000;fillColor=#f5f5f5;overflow=fill;rounded=0;shadow=1;fontSize=12;align=center;" parent="1" vertex="1">
          <mxGeometry x="1122" y="290" width="150" height="60" as="geometry" />
        </mxCell>
        <mxCell id="3cfceab9cabfe5b9-31" style="edgeStyle=none;curved=1;html=1;startSize=10;endArrow=classic;endFill=1;endSize=10;strokeColor=#FF0000;strokeWidth=1;fontSize=12;" parent="1" source="3cfceab9cabfe5b9-18" target="3cfceab9cabfe5b9-14" edge="1">
          <mxGeometry relative="1" as="geometry" />
        </mxCell>
        <mxCell id="3cfceab9cabfe5b9-18" value="&lt;table border=&quot;1&quot; width=&quot;100%&quot; style=&quot;width: 100% ; height: 100% ; border-collapse: collapse&quot;&gt;&lt;tbody&gt;&lt;tr&gt;&lt;td colspan=&quot;2&quot; align=&quot;center&quot;&gt;&lt;font style=&quot;font-size: 12px&quot;&gt;Title&lt;/font&gt;&lt;/td&gt;&lt;/tr&gt;&lt;tr&gt;&lt;td align=&quot;center&quot;&gt;8&lt;/td&gt;&lt;td align=&quot;center&quot;&gt;&lt;font style=&quot;font-size: 12px&quot;&gt;1 day&lt;/font&gt;&lt;/td&gt;&lt;/tr&gt;&lt;tr&gt;&lt;td align=&quot;center&quot;&gt;&lt;font style=&quot;font-size: 12px&quot;&gt;Mon 1/2&lt;/font&gt;&lt;/td&gt;&lt;td align=&quot;center&quot;&gt;&lt;font style=&quot;font-size: 12px&quot;&gt;Mon 2/2&lt;/font&gt;&lt;/td&gt;&lt;/tr&gt;&lt;/tbody&gt;&lt;/table&gt;" style="text;html=1;strokeColor=#FF0000;fillColor=#f5f5f5;overflow=fill;rounded=0;shadow=1;fontSize=12;align=center;" parent="1" vertex="1">
          <mxGeometry x="1122" y="432" width="150" height="60" as="geometry" />
        </mxCell>
        <mxCell id="3cfceab9cabfe5b9-57" style="edgeStyle=none;curved=1;html=1;startSize=10;endArrow=classic;endFill=1;endSize=10;strokeWidth=1;fontSize=12;" parent="1" source="3cfceab9cabfe5b9-19" target="3cfceab9cabfe5b9-21" edge="1">
          <mxGeometry relative="1" as="geometry" />
        </mxCell>
        <mxCell id="3cfceab9cabfe5b9-19" value="&lt;table border=&quot;1&quot; width=&quot;100%&quot; style=&quot;width: 100% ; height: 100% ; border-collapse: collapse&quot;&gt;&lt;tbody&gt;&lt;tr&gt;&lt;td colspan=&quot;2&quot; align=&quot;center&quot;&gt;&lt;font style=&quot;font-size: 12px&quot;&gt;Title&lt;/font&gt;&lt;/td&gt;&lt;/tr&gt;&lt;tr&gt;&lt;td align=&quot;center&quot;&gt;18&lt;/td&gt;&lt;td align=&quot;center&quot;&gt;&lt;font style=&quot;font-size: 12px&quot;&gt;1 day&lt;/font&gt;&lt;/td&gt;&lt;/tr&gt;&lt;tr&gt;&lt;td align=&quot;center&quot;&gt;&lt;font style=&quot;font-size: 12px&quot;&gt;Mon 1/2&lt;/font&gt;&lt;/td&gt;&lt;td align=&quot;center&quot;&gt;&lt;font style=&quot;font-size: 12px&quot;&gt;Mon 2/2&lt;/font&gt;&lt;/td&gt;&lt;/tr&gt;&lt;/tbody&gt;&lt;/table&gt;" style="text;html=1;strokeColor=#666666;fillColor=#f5f5f5;overflow=fill;rounded=0;shadow=1;fontSize=12;align=center;" parent="1" vertex="1">
          <mxGeometry x="862" y="888" width="150" height="60" as="geometry" />
        </mxCell>
        <mxCell id="3cfceab9cabfe5b9-40" style="edgeStyle=none;curved=1;html=1;startSize=10;endArrow=classic;endFill=1;endSize=10;strokeWidth=1;fontSize=12;" parent="1" source="3cfceab9cabfe5b9-20" target="3cfceab9cabfe5b9-21" edge="1">
          <mxGeometry relative="1" as="geometry" />
        </mxCell>
        <mxCell id="3cfceab9cabfe5b9-20" value="&lt;table border=&quot;1&quot; width=&quot;100%&quot; style=&quot;width: 100% ; height: 100% ; border-collapse: collapse&quot;&gt;&lt;tbody&gt;&lt;tr&gt;&lt;td colspan=&quot;2&quot; align=&quot;center&quot;&gt;&lt;font style=&quot;font-size: 12px&quot;&gt;Title&lt;/font&gt;&lt;/td&gt;&lt;/tr&gt;&lt;tr&gt;&lt;td align=&quot;center&quot;&gt;21&lt;/td&gt;&lt;td align=&quot;center&quot;&gt;&lt;font style=&quot;font-size: 12px&quot;&gt;1 day&lt;/font&gt;&lt;/td&gt;&lt;/tr&gt;&lt;tr&gt;&lt;td align=&quot;center&quot;&gt;&lt;font style=&quot;font-size: 12px&quot;&gt;Mon 1/2&lt;/font&gt;&lt;/td&gt;&lt;td align=&quot;center&quot;&gt;&lt;font style=&quot;font-size: 12px&quot;&gt;Mon 2/2&lt;/font&gt;&lt;/td&gt;&lt;/tr&gt;&lt;/tbody&gt;&lt;/table&gt;" style="text;html=1;strokeColor=#666666;fillColor=#f5f5f5;overflow=fill;rounded=0;shadow=1;fontSize=12;align=center;" parent="1" vertex="1">
          <mxGeometry x="862" y="1000" width="150" height="60" as="geometry" />
        </mxCell>
        <mxCell id="3cfceab9cabfe5b9-41" style="edgeStyle=none;curved=1;html=1;startSize=10;endArrow=classic;endFill=1;endSize=10;strokeWidth=1;fontSize=12;" parent="1" source="3cfceab9cabfe5b9-21" target="3cfceab9cabfe5b9-16" edge="1">
          <mxGeometry relative="1" as="geometry" />
        </mxCell>
        <mxCell id="3cfceab9cabfe5b9-21" value="&lt;table border=&quot;1&quot; width=&quot;100%&quot; style=&quot;width: 100% ; height: 100% ; border-collapse: collapse&quot;&gt;&lt;tbody&gt;&lt;tr&gt;&lt;td colspan=&quot;2&quot; align=&quot;center&quot;&gt;&lt;font style=&quot;font-size: 12px&quot;&gt;Title&lt;/font&gt;&lt;/td&gt;&lt;/tr&gt;&lt;tr&gt;&lt;td align=&quot;center&quot;&gt;22&lt;/td&gt;&lt;td align=&quot;center&quot;&gt;&lt;font style=&quot;font-size: 12px&quot;&gt;1 day&lt;/font&gt;&lt;/td&gt;&lt;/tr&gt;&lt;tr&gt;&lt;td align=&quot;center&quot;&gt;&lt;font style=&quot;font-size: 12px&quot;&gt;Mon 1/2&lt;/font&gt;&lt;/td&gt;&lt;td align=&quot;center&quot;&gt;&lt;font style=&quot;font-size: 12px&quot;&gt;Mon 2/2&lt;/font&gt;&lt;/td&gt;&lt;/tr&gt;&lt;/tbody&gt;&lt;/table&gt;" style="text;html=1;strokeColor=#666666;fillColor=#f5f5f5;overflow=fill;rounded=0;shadow=1;fontSize=12;align=center;" parent="1" vertex="1">
          <mxGeometry x="1175" y="1000" width="150" height="60" as="geometry" />
        </mxCell>
        <mxCell id="3cfceab9cabfe5b9-49" style="edgeStyle=none;curved=1;html=1;startSize=10;endArrow=classic;endFill=1;endSize=10;strokeWidth=1;fontSize=12;" parent="1" source="3cfceab9cabfe5b9-46" target="3cfceab9cabfe5b9-47" edge="1">
          <mxGeometry relative="1" as="geometry" />
        </mxCell>
        <mxCell id="3cfceab9cabfe5b9-46" value="&lt;table border=&quot;1&quot; width=&quot;100%&quot; style=&quot;width: 100% ; height: 100% ; border-collapse: collapse&quot;&gt;&lt;tbody&gt;&lt;tr&gt;&lt;td colspan=&quot;2&quot; align=&quot;center&quot;&gt;&lt;font style=&quot;font-size: 12px&quot;&gt;Title&lt;/font&gt;&lt;/td&gt;&lt;/tr&gt;&lt;tr&gt;&lt;td align=&quot;center&quot;&gt;&lt;font style=&quot;font-size: 12px&quot;&gt;13&lt;/font&gt;&lt;/td&gt;&lt;td align=&quot;center&quot;&gt;&lt;font style=&quot;font-size: 12px&quot;&gt;1 day&lt;/font&gt;&lt;/td&gt;&lt;/tr&gt;&lt;tr&gt;&lt;td align=&quot;center&quot;&gt;&lt;font style=&quot;font-size: 12px&quot;&gt;Mon 1/2&lt;/font&gt;&lt;/td&gt;&lt;td align=&quot;center&quot;&gt;&lt;font style=&quot;font-size: 12px&quot;&gt;Mon 2/2&lt;/font&gt;&lt;/td&gt;&lt;/tr&gt;&lt;/tbody&gt;&lt;/table&gt;" style="text;html=1;strokeColor=#666666;fillColor=#f5f5f5;overflow=fill;rounded=0;shadow=1;fontSize=12;align=center;" parent="1" vertex="1">
          <mxGeometry x="987" y="686" width="150" height="60" as="geometry" />
        </mxCell>
        <mxCell id="3cfceab9cabfe5b9-50" style="edgeStyle=none;curved=1;html=1;startSize=10;endArrow=classic;endFill=1;endSize=10;strokeWidth=1;fontSize=12;" parent="1" source="3cfceab9cabfe5b9-47" target="3cfceab9cabfe5b9-3" edge="1">
          <mxGeometry relative="1" as="geometry" />
        </mxCell>
        <mxCell id="3cfceab9cabfe5b9-47" value="&lt;table border=&quot;1&quot; width=&quot;100%&quot; style=&quot;width: 100% ; height: 100% ; border-collapse: collapse&quot;&gt;&lt;tbody&gt;&lt;tr&gt;&lt;td colspan=&quot;2&quot; align=&quot;center&quot;&gt;&lt;font style=&quot;font-size: 12px&quot;&gt;Title&lt;/font&gt;&lt;/td&gt;&lt;/tr&gt;&lt;tr&gt;&lt;td align=&quot;center&quot;&gt;14&lt;/td&gt;&lt;td align=&quot;center&quot;&gt;&lt;font style=&quot;font-size: 12px&quot;&gt;1 day&lt;/font&gt;&lt;/td&gt;&lt;/tr&gt;&lt;tr&gt;&lt;td align=&quot;center&quot;&gt;&lt;font style=&quot;font-size: 12px&quot;&gt;Mon 1/2&lt;/font&gt;&lt;/td&gt;&lt;td align=&quot;center&quot;&gt;&lt;font style=&quot;font-size: 12px&quot;&gt;Mon 2/2&lt;/font&gt;&lt;/td&gt;&lt;/tr&gt;&lt;/tbody&gt;&lt;/table&gt;" style="text;html=1;strokeColor=#666666;fillColor=#f5f5f5;overflow=fill;rounded=0;shadow=1;fontSize=12;align=center;" parent="1" vertex="1">
          <mxGeometry x="1197" y="686" width="150" height="60" as="geometry" />
        </mxCell>
        <mxCell id="3cfceab9cabfe5b9-54" style="edgeStyle=none;curved=1;html=1;startSize=10;endArrow=classic;endFill=1;endSize=10;strokeWidth=1;fontSize=12;" parent="1" source="3cfceab9cabfe5b9-52" target="3cfceab9cabfe5b9-2" edge="1">
          <mxGeometry relative="1" as="geometry" />
        </mxCell>
        <mxCell id="3cfceab9cabfe5b9-52" value="&lt;table border=&quot;1&quot; width=&quot;100%&quot; style=&quot;width: 100% ; height: 100% ; border-collapse: collapse&quot;&gt;&lt;tbody&gt;&lt;tr&gt;&lt;td colspan=&quot;2&quot; align=&quot;center&quot;&gt;&lt;font style=&quot;font-size: 12px&quot;&gt;Title&lt;/font&gt;&lt;/td&gt;&lt;/tr&gt;&lt;tr&gt;&lt;td align=&quot;center&quot;&gt;17&lt;/td&gt;&lt;td align=&quot;center&quot;&gt;&lt;font style=&quot;font-size: 12px&quot;&gt;1 day&lt;/font&gt;&lt;/td&gt;&lt;/tr&gt;&lt;tr&gt;&lt;td align=&quot;center&quot;&gt;&lt;font style=&quot;font-size: 12px&quot;&gt;Mon 1/2&lt;/font&gt;&lt;/td&gt;&lt;td align=&quot;center&quot;&gt;&lt;font style=&quot;font-size: 12px&quot;&gt;Mon 2/2&lt;/font&gt;&lt;/td&gt;&lt;/tr&gt;&lt;/tbody&gt;&lt;/table&gt;" style="text;html=1;strokeColor=#666666;fillColor=#f5f5f5;overflow=fill;rounded=0;shadow=1;fontSize=12;align=center;" parent="1" vertex="1">
          <mxGeometry x="1197" y="780" width="150" height="60" as="geometry" />
        </mxCell>
        <mxCell id="3cfceab9cabfe5b9-59" value="" style="line;strokeWidth=1;html=1;rounded=1;fontSize=12;align=center;verticalAlign=middle;strokeColor=#FF0000;endFill=1;endArrow=classic;endSize=10;startSize=10;" parent="1" vertex="1">
          <mxGeometry x="87" y="1105" width="68" height="10" as="geometry" />
        </mxCell>
        <mxCell id="3cfceab9cabfe5b9-60" value="Preferred route" style="text;html=1;strokeColor=none;fillColor=none;align=left;verticalAlign=middle;whiteSpace=wrap;rounded=0;shadow=1;fontSize=12;" parent="1" vertex="1">
          <mxGeometry x="172" y="1100" width="143" height="20" as="geometry" />
        </mxCell>
        <mxCell id="l0NN_ZI7lF0BbJ7nAiV_-1" value="" style="whiteSpace=wrap;html=1;aspect=fixed;" vertex="1" parent="1">
          <mxGeometry x="620" y="480" width="80" height="80" as="geometry" />
        </mxCell>
        <mxCell id="l0NN_ZI7lF0BbJ7nAiV_-3" value="&lt;font size=&quot;3&quot;&gt;시작 페이지&lt;br&gt;/index.do&lt;br&gt;&lt;/font&gt;" style="whiteSpace=wrap;html=1;aspect=fixed;" vertex="1" parent="1">
          <mxGeometry x="500" y="1970" width="230" height="230" as="geometry" />
        </mxCell>
        <mxCell id="l0NN_ZI7lF0BbJ7nAiV_-4" value="&lt;font size=&quot;3&quot;&gt;회원가입&lt;br&gt;/user/register.do&lt;br&gt;&lt;/font&gt;" style="whiteSpace=wrap;html=1;aspect=fixed;" vertex="1" parent="1">
          <mxGeometry x="500" y="1630" width="230" height="230" as="geometry" />
        </mxCell>
        <mxCell id="l0NN_ZI7lF0BbJ7nAiV_-5" value="&lt;font size=&quot;3&quot;&gt;회원탈퇴&lt;br&gt;/user/unregister.do&lt;br&gt;&lt;/font&gt;" style="whiteSpace=wrap;html=1;aspect=fixed;" vertex="1" parent="1">
          <mxGeometry x="849" y="1630" width="230" height="230" as="geometry" />
        </mxCell>
        <mxCell id="l0NN_ZI7lF0BbJ7nAiV_-6" value="&lt;font size=&quot;3&quot;&gt;로그인&lt;br&gt;/user/login.do&lt;br&gt;&lt;/font&gt;" style="whiteSpace=wrap;html=1;aspect=fixed;" vertex="1" parent="1">
          <mxGeometry x="183" y="1630" width="230" height="230" as="geometry" />
        </mxCell>
        <mxCell id="l0NN_ZI7lF0BbJ7nAiV_-7" value="&lt;font size=&quot;3&quot;&gt;로그아웃&lt;br&gt;/user/logout.do&lt;br&gt;&lt;/font&gt;" style="whiteSpace=wrap;html=1;aspect=fixed;" vertex="1" parent="1">
          <mxGeometry x="-130" y="1630" width="230" height="230" as="geometry" />
        </mxCell>
        <mxCell id="l0NN_ZI7lF0BbJ7nAiV_-8" value="&lt;font size=&quot;3&quot;&gt;회원정보&lt;br&gt;/user/info.do&lt;br&gt;&lt;/font&gt;" style="whiteSpace=wrap;html=1;aspect=fixed;" vertex="1" parent="1">
          <mxGeometry x="807" y="1970" width="230" height="230" as="geometry" />
        </mxCell>
        <mxCell id="l0NN_ZI7lF0BbJ7nAiV_-10" value="" style="endArrow=classic;html=1;rounded=0;exitX=0.25;exitY=0;exitDx=0;exitDy=0;entryX=0.25;entryY=1;entryDx=0;entryDy=0;" edge="1" parent="1" source="l0NN_ZI7lF0BbJ7nAiV_-3" target="l0NN_ZI7lF0BbJ7nAiV_-4">
          <mxGeometry width="50" height="50" relative="1" as="geometry">
            <mxPoint x="560" y="1910" as="sourcePoint" />
            <mxPoint x="610" y="1860" as="targetPoint" />
          </mxGeometry>
        </mxCell>
        <mxCell id="l0NN_ZI7lF0BbJ7nAiV_-11" value="result" style="endArrow=classic;html=1;rounded=0;exitX=0.75;exitY=1;exitDx=0;exitDy=0;entryX=0.75;entryY=0;entryDx=0;entryDy=0;" edge="1" parent="1" source="l0NN_ZI7lF0BbJ7nAiV_-4" target="l0NN_ZI7lF0BbJ7nAiV_-3">
          <mxGeometry width="50" height="50" relative="1" as="geometry">
            <mxPoint x="610" y="1970" as="sourcePoint" />
            <mxPoint x="660" y="1920" as="targetPoint" />
            <mxPoint as="offset" />
          </mxGeometry>
        </mxCell>
        <mxCell id="l0NN_ZI7lF0BbJ7nAiV_-12" value="" style="endArrow=classic;html=1;rounded=0;exitX=0.864;exitY=0.002;exitDx=0;exitDy=0;entryX=0;entryY=0.5;entryDx=0;entryDy=0;exitPerimeter=0;" edge="1" parent="1" source="l0NN_ZI7lF0BbJ7nAiV_-3" target="l0NN_ZI7lF0BbJ7nAiV_-5">
          <mxGeometry width="50" height="50" relative="1" as="geometry">
            <mxPoint x="770" y="1930" as="sourcePoint" />
            <mxPoint x="770" y="1820" as="targetPoint" />
          </mxGeometry>
        </mxCell>
        <mxCell id="l0NN_ZI7lF0BbJ7nAiV_-13" value="result" style="endArrow=classic;html=1;rounded=0;exitX=0;exitY=0.75;exitDx=0;exitDy=0;entryX=1.013;entryY=0.112;entryDx=0;entryDy=0;entryPerimeter=0;" edge="1" parent="1" source="l0NN_ZI7lF0BbJ7nAiV_-5" target="l0NN_ZI7lF0BbJ7nAiV_-3">
          <mxGeometry width="50" height="50" relative="1" as="geometry">
            <mxPoint x="831" y="2050" as="sourcePoint" />
            <mxPoint x="910" y="1929" as="targetPoint" />
          </mxGeometry>
        </mxCell>
        <mxCell id="l0NN_ZI7lF0BbJ7nAiV_-16" value="인증 처리" style="endArrow=classic;html=1;rounded=0;exitX=0.25;exitY=0;exitDx=0;exitDy=0;entryX=0.75;entryY=0;entryDx=0;entryDy=0;" edge="1" parent="1" source="l0NN_ZI7lF0BbJ7nAiV_-6" target="l0NN_ZI7lF0BbJ7nAiV_-6">
          <mxGeometry width="50" height="50" relative="1" as="geometry">
            <mxPoint x="307" y="1590" as="sourcePoint" />
            <mxPoint x="357" y="1540" as="targetPoint" />
            <Array as="points">
              <mxPoint x="298" y="1560" />
            </Array>
          </mxGeometry>
        </mxCell>
        <mxCell id="l0NN_ZI7lF0BbJ7nAiV_-17" value="" style="endArrow=classic;html=1;rounded=0;entryX=1;entryY=0.75;entryDx=0;entryDy=0;exitX=0.25;exitY=0;exitDx=0;exitDy=0;" edge="1" parent="1" source="l0NN_ZI7lF0BbJ7nAiV_-3" target="l0NN_ZI7lF0BbJ7nAiV_-6">
          <mxGeometry width="50" height="50" relative="1" as="geometry">
            <mxPoint x="427" y="1950" as="sourcePoint" />
            <mxPoint x="477" y="1900" as="targetPoint" />
          </mxGeometry>
        </mxCell>
        <mxCell id="l0NN_ZI7lF0BbJ7nAiV_-18" value="" style="endArrow=classic;html=1;rounded=0;entryX=0;entryY=0.25;entryDx=0;entryDy=0;exitX=0.75;exitY=1;exitDx=0;exitDy=0;" edge="1" parent="1" source="l0NN_ZI7lF0BbJ7nAiV_-6" target="l0NN_ZI7lF0BbJ7nAiV_-3">
          <mxGeometry width="50" height="50" relative="1" as="geometry">
            <mxPoint x="347" y="1990" as="sourcePoint" />
            <mxPoint x="397" y="1940" as="targetPoint" />
          </mxGeometry>
        </mxCell>
        <mxCell id="l0NN_ZI7lF0BbJ7nAiV_-19" value="" style="endArrow=classic;html=1;rounded=0;entryX=0;entryY=0.5;entryDx=0;entryDy=0;exitX=1;exitY=0.75;exitDx=0;exitDy=0;" edge="1" parent="1" source="l0NN_ZI7lF0BbJ7nAiV_-7" target="l0NN_ZI7lF0BbJ7nAiV_-3">
          <mxGeometry width="50" height="50" relative="1" as="geometry">
            <mxPoint x="157" y="2050" as="sourcePoint" />
            <mxPoint x="207" y="2000" as="targetPoint" />
          </mxGeometry>
        </mxCell>
        <mxCell id="l0NN_ZI7lF0BbJ7nAiV_-20" value="" style="endArrow=classic;html=1;rounded=0;entryX=0.75;entryY=1;entryDx=0;entryDy=0;exitX=0;exitY=0.75;exitDx=0;exitDy=0;" edge="1" parent="1" source="l0NN_ZI7lF0BbJ7nAiV_-3" target="l0NN_ZI7lF0BbJ7nAiV_-7">
          <mxGeometry width="50" height="50" relative="1" as="geometry">
            <mxPoint x="-13" y="2080" as="sourcePoint" />
            <mxPoint x="37" y="2030" as="targetPoint" />
          </mxGeometry>
        </mxCell>
        <mxCell id="l0NN_ZI7lF0BbJ7nAiV_-22" value="" style="endArrow=classic;html=1;rounded=0;entryX=1;entryY=0.5;entryDx=0;entryDy=0;" edge="1" parent="1" source="l0NN_ZI7lF0BbJ7nAiV_-8" target="l0NN_ZI7lF0BbJ7nAiV_-3">
          <mxGeometry width="50" height="50" relative="1" as="geometry">
            <mxPoint x="736.2893218813451" y="2135" as="sourcePoint" />
            <mxPoint x="736.2893218813451" y="2085" as="targetPoint" />
          </mxGeometry>
        </mxCell>
        <mxCell id="l0NN_ZI7lF0BbJ7nAiV_-23" value="" style="endArrow=classic;html=1;rounded=0;exitX=1;exitY=0.25;exitDx=0;exitDy=0;entryX=0;entryY=0.25;entryDx=0;entryDy=0;" edge="1" parent="1" source="l0NN_ZI7lF0BbJ7nAiV_-3" target="l0NN_ZI7lF0BbJ7nAiV_-8">
          <mxGeometry width="50" height="50" relative="1" as="geometry">
            <mxPoint x="757" y="2070" as="sourcePoint" />
            <mxPoint x="807" y="2020" as="targetPoint" />
          </mxGeometry>
        </mxCell>
        <mxCell id="l0NN_ZI7lF0BbJ7nAiV_-24" value="&lt;font size=&quot;3&quot;&gt;게시판목록보기&lt;br&gt;/board/list.do&lt;br&gt;&lt;/font&gt;" style="whiteSpace=wrap;html=1;aspect=fixed;" vertex="1" parent="1">
          <mxGeometry x="502" y="2610" width="230" height="230" as="geometry" />
        </mxCell>
        <mxCell id="l0NN_ZI7lF0BbJ7nAiV_-25" value="&lt;font size=&quot;3&quot;&gt;게시판글쓰기&lt;br&gt;/board/add.do&lt;br&gt;&lt;/font&gt;" style="whiteSpace=wrap;html=1;aspect=fixed;" vertex="1" parent="1">
          <mxGeometry x="177" y="2320" width="230" height="230" as="geometry" />
        </mxCell>
        <mxCell id="l0NN_ZI7lF0BbJ7nAiV_-26" value="&lt;font size=&quot;3&quot;&gt;게시판 수정하기&lt;br&gt;/board/edit.do&lt;br&gt;&lt;/font&gt;" style="whiteSpace=wrap;html=1;aspect=fixed;" vertex="1" parent="1">
          <mxGeometry x="807" y="2320" width="230" height="230" as="geometry" />
        </mxCell>
        <mxCell id="l0NN_ZI7lF0BbJ7nAiV_-43" value="글 삭제 성공" style="edgeStyle=orthogonalEdgeStyle;rounded=0;orthogonalLoop=1;jettySize=auto;html=1;exitX=0.5;exitY=0;exitDx=0;exitDy=0;entryX=0.5;entryY=1;entryDx=0;entryDy=0;" edge="1" parent="1" source="l0NN_ZI7lF0BbJ7nAiV_-27" target="l0NN_ZI7lF0BbJ7nAiV_-24">
          <mxGeometry relative="1" as="geometry" />
        </mxCell>
        <mxCell id="l0NN_ZI7lF0BbJ7nAiV_-27" value="&lt;font size=&quot;3&quot;&gt;게시판 삭제하기&lt;br&gt;/board/del.do&lt;br&gt;&lt;/font&gt;" style="whiteSpace=wrap;html=1;aspect=fixed;" vertex="1" parent="1">
          <mxGeometry x="507" y="2970" width="230" height="230" as="geometry" />
        </mxCell>
        <mxCell id="l0NN_ZI7lF0BbJ7nAiV_-28" value="&lt;font size=&quot;3&quot;&gt;게시판&lt;br&gt;상세 보기&lt;br&gt;/board/view.do&lt;br&gt;&lt;/font&gt;" style="whiteSpace=wrap;html=1;aspect=fixed;" vertex="1" parent="1">
          <mxGeometry x="807" y="2870" width="230" height="230" as="geometry" />
        </mxCell>
        <mxCell id="l0NN_ZI7lF0BbJ7nAiV_-30" value="" style="endArrow=classic;html=1;rounded=0;" edge="1" parent="1" source="l0NN_ZI7lF0BbJ7nAiV_-25" target="l0NN_ZI7lF0BbJ7nAiV_-24">
          <mxGeometry width="50" height="50" relative="1" as="geometry">
            <mxPoint x="320" y="2770" as="sourcePoint" />
            <mxPoint x="370" y="2720" as="targetPoint" />
          </mxGeometry>
        </mxCell>
        <mxCell id="l0NN_ZI7lF0BbJ7nAiV_-31" value="취소" style="endArrow=classic;html=1;rounded=0;exitX=0.75;exitY=1;exitDx=0;exitDy=0;" edge="1" parent="1" source="l0NN_ZI7lF0BbJ7nAiV_-25" target="l0NN_ZI7lF0BbJ7nAiV_-24">
          <mxGeometry width="50" height="50" relative="1" as="geometry">
            <mxPoint x="400" y="2650" as="sourcePoint" />
            <mxPoint x="450" y="2600" as="targetPoint" />
          </mxGeometry>
        </mxCell>
        <mxCell id="l0NN_ZI7lF0BbJ7nAiV_-33" value="성공" style="endArrow=classic;html=1;rounded=0;entryX=0;entryY=0.5;entryDx=0;entryDy=0;exitX=0.5;exitY=1;exitDx=0;exitDy=0;" edge="1" parent="1" source="l0NN_ZI7lF0BbJ7nAiV_-25" target="l0NN_ZI7lF0BbJ7nAiV_-24">
          <mxGeometry width="50" height="50" relative="1" as="geometry">
            <mxPoint x="390" y="2720" as="sourcePoint" />
            <mxPoint x="440" y="2670" as="targetPoint" />
          </mxGeometry>
        </mxCell>
        <mxCell id="l0NN_ZI7lF0BbJ7nAiV_-34" value="" style="endArrow=classic;html=1;rounded=0;exitX=0.5;exitY=0;exitDx=0;exitDy=0;entryX=0;entryY=1;entryDx=0;entryDy=0;" edge="1" parent="1" source="l0NN_ZI7lF0BbJ7nAiV_-24" target="l0NN_ZI7lF0BbJ7nAiV_-8">
          <mxGeometry width="50" height="50" relative="1" as="geometry">
            <mxPoint x="647" y="2400" as="sourcePoint" />
            <mxPoint x="697" y="2350" as="targetPoint" />
          </mxGeometry>
        </mxCell>
        <mxCell id="l0NN_ZI7lF0BbJ7nAiV_-35" value="" style="endArrow=classic;html=1;rounded=0;entryX=0.75;entryY=0;entryDx=0;entryDy=0;exitX=0.25;exitY=1;exitDx=0;exitDy=0;" edge="1" parent="1" source="l0NN_ZI7lF0BbJ7nAiV_-8" target="l0NN_ZI7lF0BbJ7nAiV_-24">
          <mxGeometry width="50" height="50" relative="1" as="geometry">
            <mxPoint x="597" y="2430" as="sourcePoint" />
            <mxPoint x="647" y="2380" as="targetPoint" />
          </mxGeometry>
        </mxCell>
        <mxCell id="l0NN_ZI7lF0BbJ7nAiV_-36" value="" style="endArrow=classic;html=1;rounded=0;exitX=0.25;exitY=0;exitDx=0;exitDy=0;entryX=0.25;entryY=1;entryDx=0;entryDy=0;" edge="1" parent="1" source="l0NN_ZI7lF0BbJ7nAiV_-28" target="l0NN_ZI7lF0BbJ7nAiV_-26">
          <mxGeometry width="50" height="50" relative="1" as="geometry">
            <mxPoint x="917" y="2750" as="sourcePoint" />
            <mxPoint x="967" y="2700" as="targetPoint" />
          </mxGeometry>
        </mxCell>
        <mxCell id="l0NN_ZI7lF0BbJ7nAiV_-37" value="취소" style="endArrow=classic;html=1;rounded=0;exitX=0.5;exitY=1;exitDx=0;exitDy=0;entryX=0.5;entryY=0;entryDx=0;entryDy=0;" edge="1" parent="1" source="l0NN_ZI7lF0BbJ7nAiV_-26" target="l0NN_ZI7lF0BbJ7nAiV_-28">
          <mxGeometry width="50" height="50" relative="1" as="geometry">
            <mxPoint x="957" y="2740" as="sourcePoint" />
            <mxPoint x="1007" y="2690" as="targetPoint" />
          </mxGeometry>
        </mxCell>
        <mxCell id="l0NN_ZI7lF0BbJ7nAiV_-38" value="성공" style="endArrow=classic;html=1;rounded=0;exitX=0.75;exitY=1;exitDx=0;exitDy=0;entryX=0.75;entryY=0;entryDx=0;entryDy=0;" edge="1" parent="1" source="l0NN_ZI7lF0BbJ7nAiV_-26" target="l0NN_ZI7lF0BbJ7nAiV_-28">
          <mxGeometry width="50" height="50" relative="1" as="geometry">
            <mxPoint x="932" y="2560" as="sourcePoint" />
            <mxPoint x="932" y="2880" as="targetPoint" />
          </mxGeometry>
        </mxCell>
        <mxCell id="l0NN_ZI7lF0BbJ7nAiV_-39" value="" style="endArrow=classic;html=1;rounded=0;entryX=0;entryY=0.25;entryDx=0;entryDy=0;exitX=1;exitY=0.75;exitDx=0;exitDy=0;" edge="1" parent="1" source="l0NN_ZI7lF0BbJ7nAiV_-24" target="l0NN_ZI7lF0BbJ7nAiV_-28">
          <mxGeometry width="50" height="50" relative="1" as="geometry">
            <mxPoint x="667" y="2920" as="sourcePoint" />
            <mxPoint x="717" y="2870" as="targetPoint" />
          </mxGeometry>
        </mxCell>
        <mxCell id="l0NN_ZI7lF0BbJ7nAiV_-40" value="" style="endArrow=classic;html=1;rounded=0;exitX=0;exitY=0.5;exitDx=0;exitDy=0;entryX=1;entryY=1;entryDx=0;entryDy=0;" edge="1" parent="1" source="l0NN_ZI7lF0BbJ7nAiV_-28" target="l0NN_ZI7lF0BbJ7nAiV_-24">
          <mxGeometry width="50" height="50" relative="1" as="geometry">
            <mxPoint x="667" y="2810" as="sourcePoint" />
            <mxPoint x="667" y="3130" as="targetPoint" />
          </mxGeometry>
        </mxCell>
        <mxCell id="l0NN_ZI7lF0BbJ7nAiV_-41" value="취소" style="endArrow=classic;html=1;rounded=0;entryX=0;entryY=0.75;entryDx=0;entryDy=0;exitX=1;exitY=0.75;exitDx=0;exitDy=0;" edge="1" parent="1" source="l0NN_ZI7lF0BbJ7nAiV_-27" target="l0NN_ZI7lF0BbJ7nAiV_-28">
          <mxGeometry width="50" height="50" relative="1" as="geometry">
            <mxPoint x="597" y="3020" as="sourcePoint" />
            <mxPoint x="647" y="2970" as="targetPoint" />
          </mxGeometry>
        </mxCell>
        <mxCell id="l0NN_ZI7lF0BbJ7nAiV_-42" value="" style="endArrow=classic;html=1;rounded=0;entryX=1;entryY=0.5;entryDx=0;entryDy=0;exitX=0;exitY=0.5;exitDx=0;exitDy=0;" edge="1" parent="1" source="l0NN_ZI7lF0BbJ7nAiV_-28" target="l0NN_ZI7lF0BbJ7nAiV_-27">
          <mxGeometry width="50" height="50" relative="1" as="geometry">
            <mxPoint x="567" y="3000" as="sourcePoint" />
            <mxPoint x="617" y="2950" as="targetPoint" />
          </mxGeometry>
        </mxCell>
      </root>
    </mxGraphModel>
  </diagram>
</mxfile>
